<?xml version="1.0" encoding="UTF-8"?>
<!DOCTYPE svg PUBLIC "-//W3C//DTD SVG 1.1//EN" "http://www.w3.org/Graphics/SVG/1.1/DTD/svg11.dtd">
<svg xmlns="http://www.w3.org/2000/svg" version="1.1" width="800px" height="924px" style="shape-rendering:geometricPrecision; text-rendering:geometricPrecision; image-rendering:optimizeQuality; fill-rule:evenodd; clip-rule:evenodd" xmlns:xlink="http://www.w3.org/1999/xlink">
<g><path style="opacity:0.063" fill="#eedfdf" d="M 554.5,10.5 C 480.57,9.33682 406.57,9.17015 332.5,10C 309.327,32.34 286.327,54.84 263.5,77.5C 263.539,76.4168 263.873,75.4168 264.5,74.5C 286.395,53.027 308.061,31.3604 329.5,9.5C 367,9.16667 404.5,8.83333 442,8.5C 479.839,8.50009 517.339,9.16676 554.5,10.5 Z"/></g>
<g><path style="opacity:1" fill="#990000" d="M 554.5,10.5 C 555.659,45.0952 555.826,79.7619 555,114.5C 554.003,116.323 552.836,117.99 551.5,119.5C 550.167,120.167 549.167,121.167 548.5,122.5C 547.167,123.167 546.167,124.167 545.5,125.5C 542.833,127.5 540.5,129.833 538.5,132.5C 537.167,133.167 536.167,134.167 535.5,135.5C 534.167,136.167 533.167,137.167 532.5,138.5C 529.833,140.5 527.5,142.833 525.5,145.5C 524.167,146.167 523.167,147.167 522.5,148.5C 521.167,149.167 520.167,150.167 519.5,151.5C 516.833,153.5 514.5,155.833 512.5,158.5C 511.167,159.167 510.167,160.167 509.5,161.5C 508.167,162.167 507.167,163.167 506.5,164.5C 505.185,165.476 503.852,166.476 502.5,167.5C 501.224,168.614 501.224,169.614 502.5,170.5C 505.046,172.564 507.379,174.897 509.5,177.5C 509.833,178.5 510.5,179.167 511.5,179.5C 512.167,179.5 512.5,179.833 512.5,180.5C 512.833,181.5 513.5,182.167 514.5,182.5C 516.833,183.5 518.5,185.167 519.5,187.5C 519.833,188.5 520.5,189.167 521.5,189.5C 522.601,190.598 523.934,190.765 525.5,190C 531.036,184.631 536.37,179.131 541.5,173.5C 542.833,172.833 543.833,171.833 544.5,170.5C 545.167,169.833 545.833,169.167 546.5,168.5C 548.167,167.5 549.5,166.167 550.5,164.5C 557.329,157.838 564.329,151.338 571.5,145C 643.5,144.333 715.5,144.333 787.5,145C 788,145.5 788.5,146 789,146.5C 789.667,201.833 789.667,257.167 789,312.5C 776.599,324.399 764.765,336.732 753.5,349.5C 753.5,350.167 753.167,350.5 752.5,350.5C 751.167,351.167 750.167,352.167 749.5,353.5C 734.531,366.802 720.197,380.802 706.5,395.5C 648.208,396.492 589.875,396.825 531.5,396.5C 531.5,402.5 531.5,408.5 531.5,414.5C 549.039,415.193 566.705,415.859 584.5,416.5C 588.5,421.167 592.833,425.5 597.5,429.5C 597.833,429.5 598.167,429.5 598.5,429.5C 601.77,434.44 605.77,438.773 610.5,442.5C 610.833,442.5 611.167,442.5 611.5,442.5C 614.77,447.44 618.77,451.773 623.5,455.5C 623.833,455.5 624.167,455.5 624.5,455.5C 627.77,460.44 631.77,464.773 636.5,468.5C 640.5,473.167 644.833,477.5 649.5,481.5C 653.5,486.167 657.833,490.5 662.5,494.5C 662.833,494.5 663.167,494.5 663.5,494.5C 666.77,499.44 670.77,503.773 675.5,507.5C 675.833,507.5 676.167,507.5 676.5,507.5C 679.77,512.44 683.77,516.773 688.5,520.5C 688.833,520.5 689.167,520.5 689.5,520.5C 692.77,525.44 696.77,529.773 701.5,533.5C 701.833,533.5 702.167,533.5 702.5,533.5C 705.77,538.44 709.77,542.773 714.5,546.5C 718.5,551.167 722.833,555.5 727.5,559.5C 727.833,559.5 728.167,559.5 728.5,559.5C 731.77,564.44 735.77,568.773 740.5,572.5C 740.833,572.5 741.167,572.5 741.5,572.5C 742.203,574.716 743.536,576.549 745.5,578C 745.167,578.333 744.833,578.667 744.5,579C 682.501,579.5 620.501,579.667 558.5,579.5C 558.833,539.494 558.5,499.494 557.5,459.5C 556.893,459.624 556.56,459.957 556.5,460.5C 555.599,461.29 554.932,462.29 554.5,463.5C 553.167,464.167 552.167,465.167 551.5,466.5C 551.5,467.167 551.167,467.5 550.5,467.5C 549.5,467.833 548.833,468.5 548.5,469.5C 548.5,470.167 548.167,470.5 547.5,470.5C 546.5,470.833 545.833,471.5 545.5,472.5C 545.5,473.167 545.167,473.5 544.5,473.5C 543.167,474.167 542.167,475.167 541.5,476.5C 540.167,477.167 539.167,478.167 538.5,479.5C 538.5,480.167 538.167,480.5 537.5,480.5C 536.5,480.833 535.833,481.5 535.5,482.5C 535.5,483.167 535.167,483.5 534.5,483.5C 533.5,483.833 532.833,484.5 532.5,485.5C 532.5,486.167 532.167,486.5 531.5,486.5C 530.167,487.167 529.167,488.167 528.5,489.5C 527.167,490.167 526.167,491.167 525.5,492.5C 525.5,493.167 525.167,493.5 524.5,493.5C 523.5,493.833 522.833,494.5 522.5,495.5C 522.5,496.167 522.167,496.5 521.5,496.5C 520.5,496.833 519.833,497.5 519.5,498.5C 519.5,499.167 519.167,499.5 518.5,499.5C 517.167,500.167 516.167,501.167 515.5,502.5C 514.167,503.167 513.167,504.167 512.5,505.5C 512.5,506.167 512.167,506.5 511.5,506.5C 510.5,506.833 509.833,507.5 509.5,508.5C 509.5,509.167 509.167,509.5 508.5,509.5C 507.5,509.833 506.833,510.5 506.5,511.5C 506.5,512.167 506.167,512.5 505.5,512.5C 504.167,513.167 503.167,514.167 502.5,515.5C 502.5,516.167 502.167,516.5 501.5,516.5C 500.5,516.833 499.833,517.5 499.5,518.5C 499.5,519.167 499.167,519.5 498.5,519.5C 497.5,519.833 496.833,520.5 496.5,521.5C 496.5,522.167 496.167,522.5 495.5,522.5C 494.5,522.833 493.833,523.5 493.5,524.5C 493.5,525.167 493.167,525.5 492.5,525.5C 491.167,526.167 490.167,527.167 489.5,528.5C 489.5,529.167 489.167,529.5 488.5,529.5C 487.5,529.833 486.833,530.5 486.5,531.5C 486.5,532.167 486.167,532.5 485.5,532.5C 484.5,532.833 483.833,533.5 483.5,534.5C 483.5,535.167 483.167,535.5 482.5,535.5C 481.5,535.833 480.833,536.5 480.5,537.5C 480.5,538.167 480.167,538.5 479.5,538.5C 478.167,539.167 477.167,540.167 476.5,541.5C 476.5,542.167 476.167,542.5 475.5,542.5C 474.5,542.833 473.833,543.5 473.5,544.5C 473.5,545.167 473.167,545.5 472.5,545.5C 471.5,545.833 470.833,546.5 470.5,547.5C 470.5,548.167 470.167,548.5 469.5,548.5C 468.167,549.167 467.167,550.167 466.5,551.5C 465.167,552.167 464.167,553.167 463.5,554.5C 463.5,555.167 463.167,555.5 462.5,555.5C 461.5,555.833 460.833,556.5 460.5,557.5C 460.5,558.167 460.167,558.5 459.5,558.5C 458.5,558.833 457.833,559.5 457.5,560.5C 457.5,561.167 457.167,561.5 456.5,561.5C 455.167,562.167 454.167,563.167 453.5,564.5C 452.167,565.167 451.167,566.167 450.5,567.5C 450.5,568.167 450.167,568.5 449.5,568.5C 448.5,568.833 447.833,569.5 447.5,570.5C 447.5,571.167 447.167,571.5 446.5,571.5C 445.5,571.833 444.833,572.5 444.5,573.5C 444.5,574.167 444.167,574.5 443.5,574.5C 441.52,575.484 439.853,576.817 438.5,578.5C 437.833,538.833 437.167,499.167 436.5,459.5C 396.833,459.5 357.167,459.5 317.5,459.5C 317.5,458.833 317.5,458.167 317.5,457.5C 317.833,456.833 318.167,456.167 318.5,455.5C 335.167,439.5 351.5,423.167 367.5,406.5C 372.167,402.5 376.5,398.167 380.5,393.5C 385.167,389.5 389.5,385.167 393.5,380.5C 398.167,376.5 402.5,372.167 406.5,367.5C 411.167,363.5 415.5,359.167 419.5,354.5C 424.167,350.5 428.5,346.167 432.5,341.5C 434.63,339.873 436.63,338.04 438.5,336C 399.833,335.333 361.167,335.333 322.5,336C 280.965,377.701 239.299,419.201 197.5,460.5C 197.167,459.5 196.5,458.833 195.5,458.5C 155.5,417.833 115.167,377.5 74.5,337.5C 73.5005,377.761 73.1671,418.761 73.5,460.5C 52.8333,460.5 32.1667,460.5 11.5,460.5C 11.2172,459.711 10.7172,459.044 10,458.5C 9.33333,418.167 9.33333,377.833 10,337.5C 10.7172,336.956 11.2172,336.289 11.5,335.5C 83.8333,335.5 156.167,335.5 228.5,335.5C 229.552,335.649 230.552,335.483 231.5,335C 172.25,275.249 112.583,216.083 52.5,157.5C 52.5,156.833 52.5,156.167 52.5,155.5C 85.7618,154.341 119.095,154.174 152.5,155C 153.044,155.717 153.711,156.217 154.5,156.5C 154.333,183.835 154.5,211.169 155,238.5C 156.039,239.71 157.206,240.71 158.5,241.5C 159.167,242.833 160.167,243.833 161.5,244.5C 162.167,245.833 163.167,246.833 164.5,247.5C 165.167,248.833 166.167,249.833 167.5,250.5C 168.5,252.167 169.833,253.5 171.5,254.5C 172.167,255.833 173.167,256.833 174.5,257.5C 175.167,258.833 176.167,259.833 177.5,260.5C 178.167,261.833 179.167,262.833 180.5,263.5C 181.5,265.167 182.833,266.5 184.5,267.5C 185.167,267.5 185.833,267.5 186.5,267.5C 188.19,267.144 189.19,266.144 189.5,264.5C 190.167,262.5 191.5,261.167 193.5,260.5C 195.19,260.144 196.19,259.144 196.5,257.5C 197.5,257.167 198.167,256.5 198.5,255.5C 202.377,254.773 204.71,252.439 205.5,248.5C 207.103,246.046 209.103,244.046 211.5,242.5C 213.144,242.19 214.144,241.19 214.5,239.5C 215.239,239.631 215.906,239.464 216.5,239C 220.689,235.252 224.356,231.085 227.5,226.5C 227.833,225.5 228.5,224.833 229.5,224.5C 232.393,223.369 234.393,221.369 235.5,218.5C 237.046,216.103 239.046,214.103 241.5,212.5C 243.144,212.19 244.144,211.19 244.5,209.5C 245.167,207.5 246.5,206.167 248.5,205.5C 250.19,205.144 251.19,204.144 251.5,202.5C 252.708,201.766 254.041,201.433 255.5,201.5C 255.5,200.5 255.5,199.5 255.5,198.5C 256.5,198.167 257.167,197.5 257.5,196.5C 257.5,195.833 257.833,195.5 258.5,195.5C 260.19,195.144 261.19,194.144 261.5,192.5C 262.173,154.598 262.839,116.598 263.5,78.5C 263.5,78.1667 263.5,77.8333 263.5,77.5C 286.327,54.84 309.327,32.34 332.5,10C 406.57,9.17015 480.57,9.33682 554.5,10.5 Z M 193.5,459.5 C 154.167,459.5 114.833,459.5 75.5,459.5C 75.3333,419.832 75.5,380.165 76,340.5C 114.772,379.694 153.772,418.694 193,457.5C 193.464,458.094 193.631,458.761 193.5,459.5 Z M 554.5,463.5 C 556.494,501.152 557.161,539.152 556.5,577.5C 518.499,577.667 480.499,577.5 442.5,577C 443.252,576.329 443.586,575.496 443.5,574.5C 444.167,574.5 444.5,574.167 444.5,573.5C 445.833,573.5 446.5,572.833 446.5,571.5C 447.167,571.5 447.5,571.167 447.5,570.5C 448.833,570.5 449.5,569.833 449.5,568.5C 450.167,568.5 450.5,568.167 450.5,567.5C 452.5,567.5 453.5,566.5 453.5,564.5C 455.5,564.5 456.5,563.5 456.5,561.5C 457.167,561.5 457.5,561.167 457.5,560.5C 458.833,560.5 459.5,559.833 459.5,558.5C 460.167,558.5 460.5,558.167 460.5,557.5C 461.833,557.5 462.5,556.833 462.5,555.5C 463.167,555.5 463.5,555.167 463.5,554.5C 465.5,554.5 466.5,553.5 466.5,551.5C 468.5,551.5 469.5,550.5 469.5,548.5C 470.167,548.5 470.5,548.167 470.5,547.5C 471.833,547.5 472.5,546.833 472.5,545.5C 473.167,545.5 473.5,545.167 473.5,544.5C 474.833,544.5 475.5,543.833 475.5,542.5C 476.167,542.5 476.5,542.167 476.5,541.5C 478.5,541.5 479.5,540.5 479.5,538.5C 480.167,538.5 480.5,538.167 480.5,537.5C 481.833,537.5 482.5,536.833 482.5,535.5C 483.167,535.5 483.5,535.167 483.5,534.5C 484.833,534.5 485.5,533.833 485.5,532.5C 486.167,532.5 486.5,532.167 486.5,531.5C 487.833,531.5 488.5,530.833 488.5,529.5C 489.167,529.5 489.5,529.167 489.5,528.5C 491.5,528.5 492.5,527.5 492.5,525.5C 493.167,525.5 493.5,525.167 493.5,524.5C 494.833,524.5 495.5,523.833 495.5,522.5C 496.167,522.5 496.5,522.167 496.5,521.5C 497.833,521.5 498.5,520.833 498.5,519.5C 499.167,519.5 499.5,519.167 499.5,518.5C 500.833,518.5 501.5,517.833 501.5,516.5C 502.167,516.5 502.5,516.167 502.5,515.5C 504.5,515.5 505.5,514.5 505.5,512.5C 506.167,512.5 506.5,512.167 506.5,511.5C 507.833,511.5 508.5,510.833 508.5,509.5C 509.167,509.5 509.5,509.167 509.5,508.5C 510.833,508.5 511.5,507.833 511.5,506.5C 512.167,506.5 512.5,506.167 512.5,505.5C 514.5,505.5 515.5,504.5 515.5,502.5C 517.5,502.5 518.5,501.5 518.5,499.5C 519.167,499.5 519.5,499.167 519.5,498.5C 520.833,498.5 521.5,497.833 521.5,496.5C 522.167,496.5 522.5,496.167 522.5,495.5C 523.833,495.5 524.5,494.833 524.5,493.5C 525.167,493.5 525.5,493.167 525.5,492.5C 527.5,492.5 528.5,491.5 528.5,489.5C 530.5,489.5 531.5,488.5 531.5,486.5C 532.167,486.5 532.5,486.167 532.5,485.5C 533.833,485.5 534.5,484.833 534.5,483.5C 535.167,483.5 535.5,483.167 535.5,482.5C 536.833,482.5 537.5,481.833 537.5,480.5C 538.167,480.5 538.5,480.167 538.5,479.5C 540.5,479.5 541.5,478.5 541.5,476.5C 543.5,476.5 544.5,475.5 544.5,473.5C 545.167,473.5 545.5,473.167 545.5,472.5C 546.833,472.5 547.5,471.833 547.5,470.5C 548.167,470.5 548.5,470.167 548.5,469.5C 549.833,469.5 550.5,468.833 550.5,467.5C 551.167,467.5 551.5,467.167 551.5,466.5C 553.5,466.5 554.5,465.5 554.5,463.5 Z"/></g>
<g><path style="opacity:0.063" fill="#fcfcfc" d="M 554.5,10.5 C 555.833,27.9873 556.5,45.8206 556.5,64C 556.167,81.8333 555.833,99.6667 555.5,117.5C 554.378,118.63 553.044,119.297 551.5,119.5C 552.836,117.99 554.003,116.323 555,114.5C 555.826,79.7619 555.659,45.0952 554.5,10.5 Z"/></g>
<g><path style="opacity:0.125" fill="#fefefe" d="M 263.5,78.5 C 262.839,116.598 262.173,154.598 261.5,192.5C 260.839,154.152 261.506,116.152 263.5,78.5 Z"/></g>
<g><path style="opacity:0.094" fill="#fbf6f6" d="M 551.5,119.5 C 551.5,121.5 550.5,122.5 548.5,122.5C 549.167,121.167 550.167,120.167 551.5,119.5 Z"/></g>
<g><path style="opacity:0.188" fill="#f9f6f6" d="M 548.5,122.5 C 548.5,124.5 547.5,125.5 545.5,125.5C 546.167,124.167 547.167,123.167 548.5,122.5 Z"/></g>
<g><path style="opacity:0.059" fill="#f7f5f5" d="M 545.5,125.5 C 544.5,129.167 542.167,131.5 538.5,132.5C 540.5,129.833 542.833,127.5 545.5,125.5 Z"/></g>
<g><path style="opacity:0.094" fill="#f9f9f9" d="M 538.5,132.5 C 538.5,134.5 537.5,135.5 535.5,135.5C 536.167,134.167 537.167,133.167 538.5,132.5 Z"/></g>
<g><path style="opacity:0.094" fill="#f9f9f9" d="M 535.5,135.5 C 535.5,137.5 534.5,138.5 532.5,138.5C 533.167,137.167 534.167,136.167 535.5,135.5 Z"/></g>
<g><path style="opacity:0.059" fill="#f7f7f7" d="M 532.5,138.5 C 531.5,142.167 529.167,144.5 525.5,145.5C 527.5,142.833 529.833,140.5 532.5,138.5 Z"/></g>
<g><path style="opacity:0.094" fill="#f9f9f9" d="M 525.5,145.5 C 525.5,147.5 524.5,148.5 522.5,148.5C 523.167,147.167 524.167,146.167 525.5,145.5 Z"/></g>
<g><path style="opacity:0.063" fill="#efdddd" d="M 753.5,349.5 C 764.765,336.732 776.599,324.399 789,312.5C 789.667,257.167 789.667,201.833 789,146.5C 788.5,146 788,145.5 787.5,145C 715.5,144.333 643.5,144.333 571.5,145C 564.329,151.338 557.329,157.838 550.5,164.5C 550.539,163.417 550.873,162.417 551.5,161.5C 557.364,155.135 563.697,149.302 570.5,144C 643.54,143.17 716.54,143.337 789.5,144.5C 790.833,201.167 790.833,257.833 789.5,314.5C 778.052,325.903 766.719,337.403 755.5,349C 754.906,349.464 754.239,349.631 753.5,349.5 Z"/></g>
<g><path style="opacity:0.188" fill="#faf8f8" d="M 522.5,148.5 C 522.5,150.5 521.5,151.5 519.5,151.5C 520.167,150.167 521.167,149.167 522.5,148.5 Z"/></g>
<g><path style="opacity:0.055" fill="#e9e6e6" d="M 519.5,151.5 C 518.5,155.167 516.167,157.5 512.5,158.5C 514.5,155.833 516.833,153.5 519.5,151.5 Z"/></g>
<g><path style="opacity:0.502" fill="#deafae" d="M 154.5,156.5 C 153.711,156.217 153.044,155.717 152.5,155C 119.095,154.174 85.7618,154.341 52.5,155.5C 68.9865,154.167 85.8198,153.5 103,153.5C 119.833,153.667 136.667,153.833 153.5,154C 154.252,154.671 154.586,155.504 154.5,156.5 Z"/></g>
<g><path style="opacity:0.063" fill="#f3f2f2" d="M 154.5,156.5 C 156.327,183.482 157.16,210.815 157,238.5C 158.039,239.244 158.539,240.244 158.5,241.5C 157.206,240.71 156.039,239.71 155,238.5C 154.5,211.169 154.333,183.835 154.5,156.5 Z"/></g>
<g><path style="opacity:0.094" fill="#fbf5f5" d="M 512.5,158.5 C 512.5,160.5 511.5,161.5 509.5,161.5C 510.167,160.167 511.167,159.167 512.5,158.5 Z"/></g>
<g><path style="opacity:0.125" fill="#fbf3f3" d="M 509.5,161.5 C 509.5,163.5 508.5,164.5 506.5,164.5C 507.167,163.167 508.167,162.167 509.5,161.5 Z"/></g>
<g><path style="opacity:0.586" fill="#f6f4f4" d="M 550.5,164.5 C 549.5,166.167 548.167,167.5 546.5,168.5C 546.525,165.821 547.858,164.488 550.5,164.5 Z"/></g>
<g><path style="opacity:0.055" fill="#d7c1c0" d="M 506.5,164.5 C 505.66,166.853 504.326,168.853 502.5,170.5C 501.224,169.614 501.224,168.614 502.5,167.5C 503.852,166.476 505.185,165.476 506.5,164.5 Z"/></g>
<g><path style="opacity:0.063" fill="#fce4e2" d="M 544.5,170.5 C 543.833,171.833 542.833,172.833 541.5,173.5C 541.5,172.5 541.5,171.5 541.5,170.5C 542.5,170.5 543.5,170.5 544.5,170.5 Z"/></g>
<g><path style="opacity:0.008" fill="#f7e8e8" d="M 509.5,177.5 C 510.833,177.5 511.5,178.167 511.5,179.5C 510.5,179.167 509.833,178.5 509.5,177.5 Z"/></g>
<g><path style="opacity:0.016" fill="#f6eded" d="M 512.5,180.5 C 513.833,180.5 514.5,181.167 514.5,182.5C 513.5,182.167 512.833,181.5 512.5,180.5 Z"/></g>
<g><path style="opacity:0.125" fill="#fbf9f9" d="M 541.5,173.5 C 536.37,179.131 531.036,184.631 525.5,190C 523.934,190.765 522.601,190.598 521.5,189.5C 528.028,185.649 533.694,180.649 538.5,174.5C 539.325,173.614 540.325,173.281 541.5,173.5 Z"/></g>
<g><path style="opacity:0.016" fill="#d8d1d1" d="M 519.5,187.5 C 520.833,187.5 521.5,188.167 521.5,189.5C 520.5,189.167 519.833,188.5 519.5,187.5 Z"/></g>
<g><path style="opacity:0.784" fill="#dd9d92" d="M 261.5,192.5 C 261.19,194.144 260.19,195.144 258.5,195.5C 258.81,193.856 259.81,192.856 261.5,192.5 Z"/></g>
<g><path style="opacity:0.063" fill="#d5d5d5" d="M 257.5,196.5 C 257.167,197.5 256.5,198.167 255.5,198.5C 255.5,197.167 256.167,196.5 257.5,196.5 Z"/></g>
<g><path style="opacity:1" fill="#c87262" d="M 255.5,198.5 C 255.5,199.5 255.5,200.5 255.5,201.5C 254.041,201.433 252.708,201.766 251.5,202.5C 252.326,200.736 253.659,199.402 255.5,198.5 Z"/></g>
<g><path style="opacity:0.769" fill="#d29389" d="M 251.5,202.5 C 251.19,204.144 250.19,205.144 248.5,205.5C 248.81,203.856 249.81,202.856 251.5,202.5 Z"/></g>
<g><path style="opacity:0.769" fill="#db9d97" d="M 244.5,209.5 C 244.144,211.19 243.144,212.19 241.5,212.5C 241.856,210.81 242.856,209.81 244.5,209.5 Z"/></g>
<g><path style="opacity:0.784" fill="#dca39f" d="M 235.5,218.5 C 234.393,221.369 232.393,223.369 229.5,224.5C 231.046,222.103 233.046,220.103 235.5,218.5 Z"/></g>
<g><path style="opacity:0.769" fill="#dea4a0" d="M 227.5,226.5 C 224.356,231.085 220.689,235.252 216.5,239C 215.906,239.464 215.239,239.631 214.5,239.5C 218.243,234.485 222.576,230.151 227.5,226.5 Z"/></g>
<g><path style="opacity:0.125" fill="#edcccb" d="M 158.5,241.5 C 160.5,241.5 161.5,242.5 161.5,244.5C 160.167,243.833 159.167,242.833 158.5,241.5 Z"/></g>
<g><path style="opacity:0.627" fill="#d8a29d" d="M 214.5,239.5 C 214.144,241.19 213.144,242.19 211.5,242.5C 211.856,240.81 212.856,239.81 214.5,239.5 Z"/></g>
<g><path style="opacity:0.063" fill="#edcdcd" d="M 161.5,244.5 C 163.5,244.5 164.5,245.5 164.5,247.5C 163.167,246.833 162.167,245.833 161.5,244.5 Z"/></g>
<g><path style="opacity:0.094" fill="#edcfcf" d="M 164.5,247.5 C 166.5,247.5 167.5,248.5 167.5,250.5C 166.167,249.833 165.167,248.833 164.5,247.5 Z"/></g>
<g><path style="opacity:0.055" fill="#eed2d2" d="M 167.5,250.5 C 169.833,250.833 171.167,252.167 171.5,254.5C 169.833,253.5 168.5,252.167 167.5,250.5 Z"/></g>
<g><path style="opacity:0.988" fill="#c05f4e" d="M 205.5,248.5 C 204.71,252.439 202.377,254.773 198.5,255.5C 200.521,252.812 202.854,250.479 205.5,248.5 Z"/></g>
<g><path style="opacity:0.125" fill="#efd6d6" d="M 171.5,254.5 C 173.5,254.5 174.5,255.5 174.5,257.5C 173.167,256.833 172.167,255.833 171.5,254.5 Z"/></g>
<g><path style="opacity:0.063" fill="#dddddd" d="M 198.5,255.5 C 198.167,256.5 197.5,257.167 196.5,257.5C 196.5,256.167 197.167,255.5 198.5,255.5 Z"/></g>
<g><path style="opacity:0.063" fill="#f0d9d9" d="M 174.5,257.5 C 176.5,257.5 177.5,258.5 177.5,260.5C 176.167,259.833 175.167,258.833 174.5,257.5 Z"/></g>
<g><path style="opacity:0.784" fill="#dd9d91" d="M 196.5,257.5 C 196.19,259.144 195.19,260.144 193.5,260.5C 193.81,258.856 194.81,257.856 196.5,257.5 Z"/></g>
<g><path style="opacity:0.094" fill="#f1dcdb" d="M 177.5,260.5 C 179.5,260.5 180.5,261.5 180.5,263.5C 179.167,262.833 178.167,261.833 177.5,260.5 Z"/></g>
<g><path style="opacity:0.055" fill="#f2dede" d="M 180.5,263.5 C 182.833,263.833 184.167,265.167 184.5,267.5C 182.833,266.5 181.5,265.167 180.5,263.5 Z"/></g>
<g><path style="opacity:0.886" fill="#d9998e" d="M 189.5,264.5 C 189.19,266.144 188.19,267.144 186.5,267.5C 186.81,265.856 187.81,264.856 189.5,264.5 Z"/></g>
<g><path style="opacity:0.031" fill="#e9cece" d="M 52.5,157.5 C 112.583,216.083 172.25,275.249 231.5,335C 230.552,335.483 229.552,335.649 228.5,335.5C 228.167,334.833 227.833,334.167 227.5,333.5C 168.833,275.166 110.5,216.5 52.5,157.5 Z"/></g>
<g><path style="opacity:0.941" fill="#faf3f3" d="M 227.5,333.5 C 227.833,334.167 228.167,334.833 228.5,335.5C 156.167,335.5 83.8333,335.5 11.5,335.5C 83.1589,333.503 155.159,332.836 227.5,333.5 Z"/></g>
<g><path style="opacity:0.724" fill="#fefefe" d="M 74.5,337.5 C 74.1681,378.337 74.5014,419.003 75.5,459.5C 114.833,459.5 154.167,459.5 193.5,459.5C 194.167,459.167 194.833,458.833 195.5,458.5C 196.5,458.833 197.167,459.5 197.5,460.5C 156.167,460.5 114.833,460.5 73.5,460.5C 73.1671,418.761 73.5005,377.761 74.5,337.5 Z"/></g>
<g><path style="opacity:0.063" fill="#efdfdf" d="M 11.5,335.5 C 11.2172,336.289 10.7172,336.956 10,337.5C 9.33333,377.833 9.33333,418.167 10,458.5C 10.7172,459.044 11.2172,459.711 11.5,460.5C 10.5,460.5 9.5,460.5 8.5,460.5C 8.5,418.833 8.5,377.167 8.5,335.5C 9.5,335.5 10.5,335.5 11.5,335.5 Z"/></g>
<g><path style="opacity:0.125" fill="#f2ebeb" d="M 74.5,337.5 C 115.167,377.5 155.5,417.833 195.5,458.5C 194.833,458.833 194.167,459.167 193.5,459.5C 193.631,458.761 193.464,458.094 193,457.5C 153.772,418.694 114.772,379.694 76,340.5C 75.5,380.165 75.3333,419.832 75.5,459.5C 74.5014,419.003 74.1681,378.337 74.5,337.5 Z M 193.5,459.5 C 154.167,459.5 114.833,459.5 75.5,459.5C 75.3333,419.832 75.5,380.165 76,340.5C 114.772,379.694 153.772,418.694 193,457.5C 193.464,458.094 193.631,458.761 193.5,459.5 Z"/></g>
<g><path style="opacity:0.565" fill="#f4f0f0" d="M 432.5,341.5 C 428.5,346.167 424.167,350.5 419.5,354.5C 419.703,352.956 420.37,351.622 421.5,350.5C 424.915,347.075 428.581,344.075 432.5,341.5 Z"/></g>
<g><path style="opacity:0.047" fill="#f3f3f3" d="M 752.5,350.5 C 752.5,352.5 751.5,353.5 749.5,353.5C 750.167,352.167 751.167,351.167 752.5,350.5 Z"/></g>
<g><path style="opacity:0.46" fill="#f4f2f1" d="M 419.5,354.5 C 415.5,359.167 411.167,363.5 406.5,367.5C 406.703,365.956 407.37,364.622 408.5,363.5C 411.915,360.075 415.581,357.075 419.5,354.5 Z"/></g>
<g><path style="opacity:0.118" fill="#fafafa" d="M 406.5,367.5 C 402.5,372.167 398.167,376.5 393.5,380.5C 393.703,378.956 394.37,377.622 395.5,376.5C 398.915,373.075 402.581,370.075 406.5,367.5 Z"/></g>
<g><path style="opacity:0.498" fill="#f2e1e1" d="M 749.5,353.5 C 749.631,354.239 749.464,354.906 749,355.5C 735.694,368.561 722.527,381.728 709.5,395C 708.552,395.483 707.552,395.649 706.5,395.5C 720.197,380.802 734.531,366.802 749.5,353.5 Z"/></g>
<g><path style="opacity:0.059" fill="#faf8f8" d="M 393.5,380.5 C 389.5,385.167 385.167,389.5 380.5,393.5C 380.703,391.956 381.37,390.622 382.5,389.5C 385.915,386.075 389.581,383.075 393.5,380.5 Z"/></g>
<g><path style="opacity:0.131" fill="#fefefe" d="M 706.5,395.5 C 648.843,397.496 590.843,398.163 532.5,397.5C 532.5,403.167 532.5,408.833 532.5,414.5C 532.167,414.5 531.833,414.5 531.5,414.5C 531.5,408.5 531.5,402.5 531.5,396.5C 589.875,396.825 648.208,396.492 706.5,395.5 Z"/></g>
<g><path style="opacity:0.769" fill="#faefee" d="M 380.5,393.5 C 376.5,398.167 372.167,402.5 367.5,406.5C 367.703,404.956 368.37,403.622 369.5,402.5C 372.915,399.075 376.581,396.075 380.5,393.5 Z"/></g>
<g><path style="opacity:0.565" fill="#f6f0f0" d="M 432.5,341.5 C 432.703,339.956 433.37,338.622 434.5,337.5C 397.505,336.333 360.505,336.167 323.5,337C 282.439,378.306 241.272,419.473 200,460.5C 199.536,461.094 199.369,461.761 199.5,462.5C 198.5,462.167 197.833,461.5 197.5,460.5C 239.299,419.201 280.965,377.701 322.5,336C 361.167,335.333 399.833,335.333 438.5,336C 436.63,338.04 434.63,339.873 432.5,341.5 Z"/></g>
<g><path style="opacity:0.125" fill="#e0b9b8" d="M 531.5,414.5 C 531.833,414.5 532.167,414.5 532.5,414.5C 550.199,413.847 567.532,414.514 584.5,416.5C 566.705,415.859 549.039,415.193 531.5,414.5 Z"/></g>
<g><path style="opacity:0.188" fill="#e1b9b8" d="M 584.5,416.5 C 586.044,416.703 587.378,417.37 588.5,418.5C 591.925,421.915 594.925,425.581 597.5,429.5C 592.833,425.5 588.5,421.167 584.5,416.5 Z"/></g>
<g><path style="opacity:0.57" fill="#f6f3f3" d="M 367.5,406.5 C 351.5,423.167 335.167,439.5 318.5,455.5C 318.703,453.956 319.37,452.622 320.5,451.5C 335.167,437.5 349.5,423.167 363.5,408.5C 364.622,407.37 365.956,406.703 367.5,406.5 Z"/></g>
<g><path style="opacity:0.439" fill="#d8aaa8" d="M 598.5,429.5 C 603.57,432.901 607.57,437.234 610.5,442.5C 605.77,438.773 601.77,434.44 598.5,429.5 Z"/></g>
<g><path style="opacity:0.439" fill="#d7a6a3" d="M 611.5,442.5 C 616.57,445.901 620.57,450.234 623.5,455.5C 618.77,451.773 614.77,447.44 611.5,442.5 Z"/></g>
<g><path style="opacity:0.439" fill="#fdfcfc" d="M 318.5,455.5 C 318.167,456.167 317.833,456.833 317.5,457.5C 316.833,457.833 316.167,458.167 315.5,458.5C 315.5,456.5 316.5,455.5 318.5,455.5 Z"/></g>
<g><path style="opacity:0.439" fill="#d2a7a5" d="M 624.5,455.5 C 629.57,458.901 633.57,463.234 636.5,468.5C 631.77,464.773 627.77,460.44 624.5,455.5 Z"/></g>
<g><path style="opacity:0.501" fill="#c26c6c" d="M 436.5,459.5 C 437.167,499.167 437.833,538.833 438.5,578.5C 438.5,578.833 438.5,579.167 438.5,579.5C 437.833,579.5 437.167,579.5 436.5,579.5C 436.5,578.5 436.5,577.5 436.5,576.5C 436.5,537.833 436.5,499.167 436.5,460.5C 436.5,460.167 436.5,459.833 436.5,459.5 Z"/></g>
<g><path style="opacity:1" fill="#d49291" d="M 556.5,460.5 C 556.56,459.957 556.893,459.624 557.5,459.5C 558.5,499.494 558.833,539.494 558.5,579.5C 558.5,579.833 558.5,580.167 558.5,580.5C 558.5,598.5 558.5,616.5 558.5,634.5C 557.503,616.341 557.17,598.008 557.5,579.5C 557.832,539.663 557.499,499.996 556.5,460.5 Z"/></g>
<g><path style="opacity:0.251" fill="#f2e2e2" d="M 11.5,460.5 C 32.1667,460.5 52.8333,460.5 73.5,460.5C 73.3333,499.501 73.5,538.501 74,577.5C 74.5,578 75,578.5 75.5,579C 192.5,579.5 309.5,579.667 426.5,579.5C 426.5,579.833 426.5,580.167 426.5,580.5C 308.833,580.667 191.166,580.5 73.5,580C 72.5035,540.906 72.1701,501.739 72.5,462.5C 51.8059,463.155 31.4725,462.488 11.5,460.5 Z"/></g>
<g><path style="opacity:1" fill="#990100" d="M 73.5,460.5 C 114.833,460.5 156.167,460.5 197.5,460.5C 197.833,461.5 198.5,462.167 199.5,462.5C 200.167,462.5 200.5,462.833 200.5,463.5C 200.833,464.5 201.5,465.167 202.5,465.5C 203.167,466.833 204.167,467.833 205.5,468.5C 206.167,468.5 206.5,468.833 206.5,469.5C 207.167,470.833 208.167,471.833 209.5,472.5C 212.5,476.167 215.833,479.5 219.5,482.5C 220.167,483.833 221.167,484.833 222.5,485.5C 225.5,489.167 228.833,492.5 232.5,495.5C 233.167,496.833 234.167,497.833 235.5,498.5C 237.167,500.833 239.167,502.833 241.5,504.5C 242.167,505.833 243.167,506.833 244.5,507.5C 245.167,507.5 245.5,507.833 245.5,508.5C 246.167,509.833 247.167,510.833 248.5,511.5C 249.167,511.5 249.5,511.833 249.5,512.5C 249.833,513.5 250.5,514.167 251.5,514.5C 252.167,514.5 252.5,514.833 252.5,515.5C 252.833,516.5 253.5,517.167 254.5,517.5C 255.167,517.5 255.5,517.833 255.5,518.5C 255.833,519.5 256.5,520.167 257.5,520.5C 258.167,520.5 258.5,520.833 258.5,521.5C 259.167,522.833 260.167,523.833 261.5,524.5C 262.167,524.5 262.5,524.833 262.5,525.5C 262.833,526.5 263.5,527.167 264.5,527.5C 265.167,527.5 265.5,527.833 265.5,528.5C 265.833,529.5 266.5,530.167 267.5,530.5C 268.167,530.5 268.5,530.833 268.5,531.5C 268.833,532.5 269.5,533.167 270.5,533.5C 271.167,533.5 271.5,533.833 271.5,534.5C 272.167,535.833 273.167,536.833 274.5,537.5C 277.5,541.167 280.833,544.5 284.5,547.5C 285.167,548.833 286.167,549.833 287.5,550.5C 290.5,554.167 293.833,557.5 297.5,560.5C 298.167,561.833 299.167,562.833 300.5,563.5C 303.167,566.833 306.167,569.833 309.5,572.5C 310.167,572.5 310.5,572.833 310.5,573.5C 311.167,574.833 312.167,575.833 313.5,576.5C 313.811,577.478 314.478,578.145 315.5,578.5C 316.5,539.172 316.833,499.839 316.5,460.5C 356.5,500.167 396.5,539.833 436.5,579.5C 437.167,579.5 437.833,579.5 438.5,579.5C 478.167,579.5 517.833,579.5 557.5,579.5C 557.17,598.008 557.503,616.341 558.5,634.5C 559.167,635.833 560.167,636.833 561.5,637.5C 563.628,640.13 565.961,642.63 568.5,645C 570.066,645.765 571.399,645.598 572.5,644.5C 573.833,643.833 574.833,642.833 575.5,641.5C 577.167,640.5 578.5,639.167 579.5,637.5C 582.833,634.833 585.833,631.833 588.5,628.5C 589.683,627.496 591.016,626.662 592.5,626C 622.5,625.333 652.5,625.333 682.5,626C 683.044,626.717 683.711,627.217 684.5,627.5C 684.5,722.5 684.5,817.5 684.5,912.5C 683.577,913.303 682.577,913.47 681.5,913C 636.632,867.965 591.632,823.132 546.5,778.5C 536.447,767.446 525.781,757.113 514.5,747.5C 506.404,737.9 497.737,728.734 488.5,720C 487.251,719.26 486.251,719.427 485.5,720.5C 484.5,720.833 483.833,721.5 483.5,722.5C 481.833,724.167 480.167,725.833 478.5,727.5C 477.5,727.833 476.833,728.5 476.5,729.5C 476.5,730.167 476.167,730.5 475.5,730.5C 474.5,730.833 473.833,731.5 473.5,732.5C 473.5,733.167 473.167,733.5 472.5,733.5C 471.5,733.833 470.833,734.5 470.5,735.5C 470.167,736.5 469.5,737.167 468.5,737.5C 467.5,737.833 466.833,738.5 466.5,739.5C 466.5,740.167 466.167,740.5 465.5,740.5C 464.5,740.833 463.833,741.5 463.5,742.5C 463.5,743.167 463.167,743.5 462.5,743.5C 461.5,743.833 460.833,744.5 460.5,745.5C 458.833,747.167 457.167,748.833 455.5,750.5C 454.5,750.833 453.833,751.5 453.5,752.5C 453.5,753.167 453.167,753.5 452.5,753.5C 451.5,753.833 450.833,754.5 450.5,755.5C 448.167,758.5 445.5,761.167 442.5,763.5C 441.5,763.833 440.833,764.5 440.5,765.5C 440.5,766.167 440.167,766.5 439.5,766.5C 438.5,766.833 437.833,767.5 437.5,768.5C 437.5,769.167 437.167,769.5 436.5,769.5C 435.5,769.833 434.833,770.5 434.5,771.5C 432.833,773.167 431.167,774.833 429.5,776.5C 429.167,776.5 428.833,776.5 428.5,776.5C 428.167,776.5 427.833,776.5 427.5,776.5C 427.832,710.665 427.499,644.998 426.5,579.5C 309.5,579.667 192.5,579.5 75.5,579C 75,578.5 74.5,578 74,577.5C 73.5,538.501 73.3333,499.501 73.5,460.5 Z"/></g>
<g><path style="opacity:0.016" fill="#fbf6f6" d="M 200.5,463.5 C 201.833,463.5 202.5,464.167 202.5,465.5C 201.5,465.167 200.833,464.5 200.5,463.5 Z"/></g>
<g><path style="opacity:0.308" fill="#fcf7f7" d="M 202.5,465.5 C 203.5,465.5 204.5,465.5 205.5,465.5C 205.5,466.5 205.5,467.5 205.5,468.5C 204.167,467.833 203.167,466.833 202.5,465.5 Z"/></g>
<g><path style="opacity:0.031" fill="#ebebeb" d="M 554.5,463.5 C 554.5,465.5 553.5,466.5 551.5,466.5C 552.167,465.167 553.167,464.167 554.5,463.5 Z"/></g>
<g><path style="opacity:0.016" fill="#dedede" d="M 550.5,467.5 C 550.5,468.833 549.833,469.5 548.5,469.5C 548.833,468.5 549.5,467.833 550.5,467.5 Z"/></g>
<g><path style="opacity:0.22" fill="#d8b5b4" d="M 636.5,468.5 C 638.044,468.703 639.378,469.37 640.5,470.5C 643.925,473.915 646.925,477.581 649.5,481.5C 644.833,477.5 640.5,473.167 636.5,468.5 Z"/></g>
<g><path style="opacity:0.251" fill="#f7f1f1" d="M 206.5,469.5 C 207.5,469.5 208.5,469.5 209.5,469.5C 209.5,470.5 209.5,471.5 209.5,472.5C 208.167,471.833 207.167,470.833 206.5,469.5 Z"/></g>
<g><path style="opacity:0.031" fill="#eeeeee" d="M 547.5,470.5 C 547.5,471.833 546.833,472.5 545.5,472.5C 545.833,471.5 546.5,470.833 547.5,470.5 Z"/></g>
<g><path style="opacity:0.031" fill="#e7e7e7" d="M 544.5,473.5 C 544.5,475.5 543.5,476.5 541.5,476.5C 542.167,475.167 543.167,474.167 544.5,473.5 Z"/></g>
<g><path style="opacity:0.094" fill="#f5eded" d="M 209.5,472.5 C 210.552,472.351 211.552,472.517 212.5,473C 214.667,475.167 216.833,477.333 219,479.5C 219.483,480.448 219.649,481.448 219.5,482.5C 215.833,479.5 212.5,476.167 209.5,472.5 Z"/></g>
<g><path style="opacity:0.031" fill="#ebebeb" d="M 541.5,476.5 C 541.5,478.5 540.5,479.5 538.5,479.5C 539.167,478.167 540.167,477.167 541.5,476.5 Z"/></g>
<g><path style="opacity:0.016" fill="#dedede" d="M 537.5,480.5 C 537.5,481.833 536.833,482.5 535.5,482.5C 535.833,481.5 536.5,480.833 537.5,480.5 Z"/></g>
<g><path style="opacity:0.22" fill="#d6b4b3" d="M 649.5,481.5 C 651.044,481.703 652.378,482.37 653.5,483.5C 656.925,486.915 659.925,490.581 662.5,494.5C 657.833,490.5 653.5,486.167 649.5,481.5 Z"/></g>
<g><path style="opacity:0.251" fill="#f4e6e6" d="M 219.5,482.5 C 220.5,482.5 221.5,482.5 222.5,482.5C 222.5,483.5 222.5,484.5 222.5,485.5C 221.167,484.833 220.167,483.833 219.5,482.5 Z"/></g>
<g><path style="opacity:0.031" fill="#eeeeee" d="M 534.5,483.5 C 534.5,484.833 533.833,485.5 532.5,485.5C 532.833,484.5 533.5,483.833 534.5,483.5 Z"/></g>
<g><path style="opacity:0.031" fill="#e7e7e7" d="M 531.5,486.5 C 531.5,488.5 530.5,489.5 528.5,489.5C 529.167,488.167 530.167,487.167 531.5,486.5 Z"/></g>
<g><path style="opacity:0.094" fill="#f4e9e9" d="M 222.5,485.5 C 223.552,485.351 224.552,485.517 225.5,486C 227.667,488.167 229.833,490.333 232,492.5C 232.483,493.448 232.649,494.448 232.5,495.5C 228.833,492.5 225.5,489.167 222.5,485.5 Z"/></g>
<g><path style="opacity:0.031" fill="#ebebeb" d="M 528.5,489.5 C 528.5,491.5 527.5,492.5 525.5,492.5C 526.167,491.167 527.167,490.167 528.5,489.5 Z"/></g>
<g><path style="opacity:0.016" fill="#dedede" d="M 524.5,493.5 C 524.5,494.833 523.833,495.5 522.5,495.5C 522.833,494.5 523.5,493.833 524.5,493.5 Z"/></g>
<g><path style="opacity:0.251" fill="#f4e6e6" d="M 232.5,495.5 C 233.5,495.5 234.5,495.5 235.5,495.5C 235.5,496.5 235.5,497.5 235.5,498.5C 234.167,497.833 233.167,496.833 232.5,495.5 Z"/></g>
<g><path style="opacity:0.439" fill="#d3a5a3" d="M 663.5,494.5 C 668.57,497.901 672.57,502.234 675.5,507.5C 670.77,503.773 666.77,499.44 663.5,494.5 Z"/></g>
<g><path style="opacity:0.031" fill="#eeeeee" d="M 521.5,496.5 C 521.5,497.833 520.833,498.5 519.5,498.5C 519.833,497.5 520.5,496.833 521.5,496.5 Z"/></g>
<g><path style="opacity:0.298" fill="#f5ebeb" d="M 235.5,498.5 C 236.552,498.351 237.552,498.517 238.5,499C 240.174,500.506 241.174,502.339 241.5,504.5C 239.167,502.833 237.167,500.833 235.5,498.5 Z"/></g>
<g><path style="opacity:0.031" fill="#f1f1f1" d="M 518.5,499.5 C 518.5,501.5 517.5,502.5 515.5,502.5C 516.167,501.167 517.167,500.167 518.5,499.5 Z"/></g>
<g><path style="opacity:0.706" fill="#f5e9e9" d="M 241.5,504.5 C 242.5,504.5 243.5,504.5 244.5,504.5C 244.5,505.5 244.5,506.5 244.5,507.5C 243.167,506.833 242.167,505.833 241.5,504.5 Z"/></g>
<g><path style="opacity:0.031" fill="#fefcfc" d="M 515.5,502.5 C 515.5,504.5 514.5,505.5 512.5,505.5C 513.167,504.167 514.167,503.167 515.5,502.5 Z"/></g>
<g><path style="opacity:0.016" fill="#fbf8f8" d="M 511.5,506.5 C 511.5,507.833 510.833,508.5 509.5,508.5C 509.833,507.5 510.5,506.833 511.5,506.5 Z"/></g>
<g><path style="opacity:0.016" fill="#f7eeee" d="M 245.5,508.5 C 247.5,508.5 248.5,509.5 248.5,511.5C 247.167,510.833 246.167,509.833 245.5,508.5 Z"/></g>
<g><path style="opacity:0.439" fill="#d2a09d" d="M 676.5,507.5 C 681.57,510.901 685.57,515.234 688.5,520.5C 683.77,516.773 679.77,512.44 676.5,507.5 Z"/></g>
<g><path style="opacity:0.031" fill="#fcf8f8" d="M 508.5,509.5 C 508.5,510.833 507.833,511.5 506.5,511.5C 506.833,510.5 507.5,509.833 508.5,509.5 Z"/></g>
<g><path style="opacity:0.016" fill="#d8d0d0" d="M 249.5,512.5 C 250.833,512.5 251.5,513.167 251.5,514.5C 250.5,514.167 249.833,513.5 249.5,512.5 Z"/></g>
<g><path style="opacity:0.031" fill="#fdecec" d="M 505.5,512.5 C 505.5,514.5 504.5,515.5 502.5,515.5C 503.167,514.167 504.167,513.167 505.5,512.5 Z"/></g>
<g><path style="opacity:0.016" fill="#dad2d2" d="M 252.5,515.5 C 253.833,515.5 254.5,516.167 254.5,517.5C 253.5,517.167 252.833,516.5 252.5,515.5 Z"/></g>
<g><path style="opacity:0.031" fill="#ebe7e7" d="M 501.5,516.5 C 501.5,517.833 500.833,518.5 499.5,518.5C 499.833,517.5 500.5,516.833 501.5,516.5 Z"/></g>
<g><path style="opacity:0.016" fill="#d8d6d6" d="M 255.5,518.5 C 256.833,518.5 257.5,519.167 257.5,520.5C 256.5,520.167 255.833,519.5 255.5,518.5 Z"/></g>
<g><path style="opacity:0.016" fill="#dad8d8" d="M 498.5,519.5 C 498.5,520.833 497.833,521.5 496.5,521.5C 496.833,520.5 497.5,519.833 498.5,519.5 Z"/></g>
<g><path style="opacity:0.016" fill="#dbd8d8" d="M 258.5,521.5 C 260.5,521.5 261.5,522.5 261.5,524.5C 260.167,523.833 259.167,522.833 258.5,521.5 Z"/></g>
<g><path style="opacity:0.439" fill="#d2a6a4" d="M 689.5,520.5 C 694.57,523.901 698.57,528.234 701.5,533.5C 696.77,529.773 692.77,525.44 689.5,520.5 Z"/></g>
<g><path style="opacity:0.031" fill="#ebeaea" d="M 495.5,522.5 C 495.5,523.833 494.833,524.5 493.5,524.5C 493.833,523.5 494.5,522.833 495.5,522.5 Z"/></g>
<g><path style="opacity:0.016" fill="#f9f8f8" d="M 262.5,525.5 C 263.833,525.5 264.5,526.167 264.5,527.5C 263.5,527.167 262.833,526.5 262.5,525.5 Z"/></g>
<g><path style="opacity:0.031" fill="#ebeaea" d="M 492.5,525.5 C 492.5,527.5 491.5,528.5 489.5,528.5C 490.167,527.167 491.167,526.167 492.5,525.5 Z"/></g>
<g><path style="opacity:0.016" fill="#fbf8f8" d="M 265.5,528.5 C 266.833,528.5 267.5,529.167 267.5,530.5C 266.5,530.167 265.833,529.5 265.5,528.5 Z"/></g>
<g><path style="opacity:0.031" fill="#eeeeee" d="M 488.5,529.5 C 488.5,530.833 487.833,531.5 486.5,531.5C 486.833,530.5 487.5,529.833 488.5,529.5 Z"/></g>
<g><path style="opacity:0.016" fill="#f9f6f6" d="M 268.5,531.5 C 269.833,531.5 270.5,532.167 270.5,533.5C 269.5,533.167 268.833,532.5 268.5,531.5 Z"/></g>
<g><path style="opacity:0.753" fill="#b03c3b" d="M 317.5,457.5 C 317.5,458.167 317.5,458.833 317.5,459.5C 316.833,459.5 316.5,459.833 316.5,460.5C 316.833,499.839 316.5,539.172 315.5,578.5C 314.478,578.145 313.811,577.478 313.5,576.5C 315.494,537.514 316.161,498.181 315.5,458.5C 316.167,458.167 316.833,457.833 317.5,457.5 Z"/></g>
<g><path style="opacity:0.016" fill="#dedede" d="M 485.5,532.5 C 485.5,533.833 484.833,534.5 483.5,534.5C 483.833,533.5 484.5,532.833 485.5,532.5 Z"/></g>
<g><path style="opacity:0.016" fill="#f8f2f2" d="M 271.5,534.5 C 273.5,534.5 274.5,535.5 274.5,537.5C 273.167,536.833 272.167,535.833 271.5,534.5 Z"/></g>
<g><path style="opacity:0.234" fill="#f3e6e5" d="M 316.5,460.5 C 316.5,459.833 316.833,459.5 317.5,459.5C 357.167,459.5 396.833,459.5 436.5,459.5C 436.5,459.833 436.5,460.167 436.5,460.5C 397.828,460.167 359.161,460.5 320.5,461.5C 358.969,500.18 397.636,538.513 436.5,576.5C 436.5,577.5 436.5,578.5 436.5,579.5C 396.5,539.833 356.5,500.167 316.5,460.5 Z"/></g>
<g><path style="opacity:0.439" fill="#d7adac" d="M 702.5,533.5 C 707.57,536.901 711.57,541.234 714.5,546.5C 709.77,542.773 705.77,538.44 702.5,533.5 Z"/></g>
<g><path style="opacity:0.031" fill="#eeeeee" d="M 482.5,535.5 C 482.5,536.833 481.833,537.5 480.5,537.5C 480.833,536.5 481.5,535.833 482.5,535.5 Z"/></g>
<g><path style="opacity:0.094" fill="#f5eded" d="M 274.5,537.5 C 275.552,537.351 276.552,537.517 277.5,538C 279.667,540.167 281.833,542.333 284,544.5C 284.483,545.448 284.649,546.448 284.5,547.5C 280.833,544.5 277.5,541.167 274.5,537.5 Z"/></g>
<g><path style="opacity:0.016" fill="#dddddd" d="M 479.5,538.5 C 479.5,540.5 478.5,541.5 476.5,541.5C 477.167,540.167 478.167,539.167 479.5,538.5 Z"/></g>
<g><path style="opacity:0.031" fill="#eeeeee" d="M 475.5,542.5 C 475.5,543.833 474.833,544.5 473.5,544.5C 473.833,543.5 474.5,542.833 475.5,542.5 Z"/></g>
<g><path style="opacity:0.016" fill="#dedede" d="M 472.5,545.5 C 472.5,546.833 471.833,547.5 470.5,547.5C 470.833,546.5 471.5,545.833 472.5,545.5 Z"/></g>
<g><path style="opacity:0.22" fill="#d6b4b3" d="M 714.5,546.5 C 716.044,546.703 717.378,547.37 718.5,548.5C 721.925,551.915 724.925,555.581 727.5,559.5C 722.833,555.5 718.5,551.167 714.5,546.5 Z"/></g>
<g><path style="opacity:0.251" fill="#f4e7e7" d="M 284.5,547.5 C 285.5,547.5 286.5,547.5 287.5,547.5C 287.5,548.5 287.5,549.5 287.5,550.5C 286.167,549.833 285.167,548.833 284.5,547.5 Z"/></g>
<g><path style="opacity:0.031" fill="#ebebeb" d="M 469.5,548.5 C 469.5,550.5 468.5,551.5 466.5,551.5C 467.167,550.167 468.167,549.167 469.5,548.5 Z"/></g>
<g><path style="opacity:0.016" fill="#dddddd" d="M 466.5,551.5 C 466.5,553.5 465.5,554.5 463.5,554.5C 464.167,553.167 465.167,552.167 466.5,551.5 Z"/></g>
<g><path style="opacity:0.063" fill="#f3e8e8" d="M 287.5,550.5 C 288.552,550.351 289.552,550.517 290.5,551C 292.667,553.167 294.833,555.333 297,557.5C 297.483,558.448 297.649,559.448 297.5,560.5C 293.833,557.5 290.5,554.167 287.5,550.5 Z"/></g>
<g><path style="opacity:0.031" fill="#eeeeee" d="M 462.5,555.5 C 462.5,556.833 461.833,557.5 460.5,557.5C 460.833,556.5 461.5,555.833 462.5,555.5 Z"/></g>
<g><path style="opacity:0.016" fill="#dedede" d="M 459.5,558.5 C 459.5,559.833 458.833,560.5 457.5,560.5C 457.833,559.5 458.5,558.833 459.5,558.5 Z"/></g>
<g><path style="opacity:0.251" fill="#f4e4e4" d="M 297.5,560.5 C 298.5,560.5 299.5,560.5 300.5,560.5C 300.5,561.5 300.5,562.5 300.5,563.5C 299.167,562.833 298.167,561.833 297.5,560.5 Z"/></g>
<g><path style="opacity:0.439" fill="#d8aaa8" d="M 728.5,559.5 C 733.57,562.901 737.57,567.234 740.5,572.5C 735.77,568.773 731.77,564.44 728.5,559.5 Z"/></g>
<g><path style="opacity:0.031" fill="#ebebeb" d="M 456.5,561.5 C 456.5,563.5 455.5,564.5 453.5,564.5C 454.167,563.167 455.167,562.167 456.5,561.5 Z"/></g>
<g><path style="opacity:0.016" fill="#dddddd" d="M 453.5,564.5 C 453.5,566.5 452.5,567.5 450.5,567.5C 451.167,566.167 452.167,565.167 453.5,564.5 Z"/></g>
<g><path style="opacity:0.063" fill="#f5eaea" d="M 300.5,563.5 C 301.552,563.351 302.552,563.517 303.5,564C 306.375,566.263 308.375,569.096 309.5,572.5C 306.167,569.833 303.167,566.833 300.5,563.5 Z"/></g>
<g><path style="opacity:0.031" fill="#ffebeb" d="M 449.5,568.5 C 449.5,569.833 448.833,570.5 447.5,570.5C 447.833,569.5 448.5,568.833 449.5,568.5 Z"/></g>
<g><path style="opacity:0.016" fill="#fafafa" d="M 446.5,571.5 C 446.5,572.833 445.833,573.5 444.5,573.5C 444.833,572.5 445.5,571.833 446.5,571.5 Z"/></g>
<g><path style="opacity:0.016" fill="#f7ecec" d="M 310.5,573.5 C 312.5,573.5 313.5,574.5 313.5,576.5C 312.167,575.833 311.167,574.833 310.5,573.5 Z"/></g>
<g><path style="opacity:0.125" fill="#fafafa" d="M 556.5,460.5 C 557.499,499.996 557.832,539.663 557.5,579.5C 517.833,579.5 478.167,579.5 438.5,579.5C 438.5,579.167 438.5,578.833 438.5,578.5C 439.853,576.817 441.52,575.484 443.5,574.5C 443.586,575.496 443.252,576.329 442.5,577C 480.499,577.5 518.499,577.667 556.5,577.5C 557.161,539.152 556.494,501.152 554.5,463.5C 554.932,462.29 555.599,461.29 556.5,460.5 Z"/></g>
<g><path style="opacity:0.251" fill="#eacdcd" d="M 741.5,572.5 C 745.372,573.827 746.705,576.327 745.5,580C 683.168,580.5 620.834,580.667 558.5,580.5C 558.5,580.167 558.5,579.833 558.5,579.5C 620.501,579.667 682.501,579.5 744.5,579C 744.833,578.667 745.167,578.333 745.5,578C 743.536,576.549 742.203,574.716 741.5,572.5 Z"/></g>
<g><path style="opacity:0.501" fill="#d59999" d="M 426.5,579.5 C 427.499,644.998 427.832,710.665 427.5,776.5C 426.508,776.672 425.842,776.338 425.5,775.5C 426.404,774.791 426.737,773.791 426.5,772.5C 426.5,708.5 426.5,644.5 426.5,580.5C 426.5,580.167 426.5,579.833 426.5,579.5 Z"/></g>
<g><path style="opacity:0.878" fill="#d08989" d="M 684.5,627.5 C 683.711,627.217 683.044,626.717 682.5,626C 652.5,625.333 622.5,625.333 592.5,626C 591.016,626.662 589.683,627.496 588.5,628.5C 588.511,626.983 589.177,625.816 590.5,625C 621.5,624.333 652.5,624.333 683.5,625C 684.252,625.671 684.586,626.504 684.5,627.5 Z"/></g>
<g><path style="opacity:0.125" fill="#f1d8d7" d="M 588.5,628.5 C 585.833,631.833 582.833,634.833 579.5,637.5C 579.421,636.07 579.754,634.736 580.5,633.5C 582.167,632.5 583.5,631.167 584.5,629.5C 585.736,628.754 587.07,628.421 588.5,628.5 Z"/></g>
<g><path style="opacity:0.188" fill="#eed0d0" d="M 558.5,634.5 C 560.5,634.5 561.5,635.5 561.5,637.5C 560.167,636.833 559.167,635.833 558.5,634.5 Z"/></g>
<g><path style="opacity:0.11" fill="#e4cccc" d="M 561.5,637.5 C 564.979,640.12 568.646,642.454 572.5,644.5C 571.399,645.598 570.066,645.765 568.5,645C 565.961,642.63 563.628,640.13 561.5,637.5 Z"/></g>
<g><path style="opacity:0.533" fill="#e1b0af" d="M 579.5,637.5 C 578.5,639.167 577.167,640.5 575.5,641.5C 575.833,639.167 577.167,637.833 579.5,637.5 Z"/></g>
<g><path style="opacity:0.502" fill="#edc9c8" d="M 575.5,641.5 C 574.833,642.833 573.833,643.833 572.5,644.5C 572.5,643.5 572.5,642.5 572.5,641.5C 573.5,641.5 574.5,641.5 575.5,641.5 Z"/></g>
<g><path style="opacity:0.251" fill="#f6e9e9" d="M 314.5,664.5 C 313.065,662.599 311.398,662.266 309.5,663.5C 310.204,661.656 311.537,661.156 313.5,662C 314.252,662.671 314.586,663.504 314.5,664.5 Z"/></g>
<g><path style="opacity:1" fill="#990302" d="M 314.5,664.5 C 315.167,665.833 316.167,666.833 317.5,667.5C 318.167,668.833 319.167,669.833 320.5,670.5C 321.167,671.833 322.167,672.833 323.5,673.5C 324.5,675.167 325.833,676.5 327.5,677.5C 328.167,678.833 329.167,679.833 330.5,680.5C 331.167,681.833 332.167,682.833 333.5,683.5C 334.167,684.833 335.167,685.833 336.5,686.5C 337.5,688.167 338.833,689.5 340.5,690.5C 348.833,699.5 357.5,708.167 366.5,716.5C 367.167,717.833 368.167,718.833 369.5,719.5C 370.167,720.833 371.167,721.833 372.5,722.5C 373.167,723.833 374.167,724.833 375.5,725.5C 376.5,727.167 377.833,728.5 379.5,729.5C 380.167,730.833 381.167,731.833 382.5,732.5C 383.167,733.833 384.167,734.833 385.5,735.5C 386.167,736.833 387.167,737.833 388.5,738.5C 389.5,740.167 390.833,741.5 392.5,742.5C 393.167,743.833 394.167,744.833 395.5,745.5C 396.167,746.833 397.167,747.833 398.5,748.5C 399.167,749.833 400.167,750.833 401.5,751.5C 402.5,753.167 403.833,754.5 405.5,755.5C 411.833,762.5 418.5,769.167 425.5,775.5C 425.842,776.338 426.508,776.672 427.5,776.5C 427.833,776.5 428.167,776.5 428.5,776.5C 428.82,794.91 428.486,813.243 427.5,831.5C 388.5,832.833 349.5,832.833 310.5,831.5C 309.501,775.669 309.168,719.669 309.5,663.5C 311.398,662.266 313.065,662.599 314.5,664.5 Z"/></g>
<g><path style="opacity:0.125" fill="#f0d8d8" d="M 314.5,664.5 C 316.5,664.5 317.5,665.5 317.5,667.5C 316.167,666.833 315.167,665.833 314.5,664.5 Z"/></g>
<g><path style="opacity:0.063" fill="#efdada" d="M 317.5,667.5 C 319.5,667.5 320.5,668.5 320.5,670.5C 319.167,669.833 318.167,668.833 317.5,667.5 Z"/></g>
<g><path style="opacity:0.047" fill="#efdada" d="M 320.5,670.5 C 322.5,670.5 323.5,671.5 323.5,673.5C 322.167,672.833 321.167,671.833 320.5,670.5 Z"/></g>
<g><path style="opacity:0.047" fill="#f0d9d9" d="M 323.5,673.5 C 325.833,673.833 327.167,675.167 327.5,677.5C 325.833,676.5 324.5,675.167 323.5,673.5 Z"/></g>
<g><path style="opacity:0.125" fill="#efd7d7" d="M 327.5,677.5 C 329.5,677.5 330.5,678.5 330.5,680.5C 329.167,679.833 328.167,678.833 327.5,677.5 Z"/></g>
<g><path style="opacity:0.063" fill="#efd4d4" d="M 330.5,680.5 C 332.5,680.5 333.5,681.5 333.5,683.5C 332.167,682.833 331.167,681.833 330.5,680.5 Z"/></g>
<g><path style="opacity:0.047" fill="#edd0d0" d="M 333.5,683.5 C 335.5,683.5 336.5,684.5 336.5,686.5C 335.167,685.833 334.167,684.833 333.5,683.5 Z"/></g>
<g><path style="opacity:0.251" fill="#f0d6d6" d="M 336.5,686.5 C 339.142,686.488 340.475,687.821 340.5,690.5C 338.833,689.5 337.5,688.167 336.5,686.5 Z"/></g>
<g><path style="opacity:0.22" fill="#f1dcdb" d="M 340.5,690.5 C 341.93,690.421 343.264,690.754 344.5,691.5C 351.167,698.167 357.833,704.833 364.5,711.5C 365.456,713.075 366.123,714.742 366.5,716.5C 357.5,708.167 348.833,699.5 340.5,690.5 Z"/></g>
<g><path style="opacity:0.753" fill="#f2dada" d="M 366.5,716.5 C 367.5,716.5 368.5,716.5 369.5,716.5C 369.5,717.5 369.5,718.5 369.5,719.5C 368.167,718.833 367.167,717.833 366.5,716.5 Z"/></g>
<g><path style="opacity:0.063" fill="#edcecd" d="M 369.5,719.5 C 371.5,719.5 372.5,720.5 372.5,722.5C 371.167,721.833 370.167,720.833 369.5,719.5 Z"/></g>
<g><path style="opacity:0.008" fill="#b7b7b7" d="M 485.5,720.5 C 485.5,721.833 484.833,722.5 483.5,722.5C 483.833,721.5 484.5,720.833 485.5,720.5 Z"/></g>
<g><path style="opacity:0.047" fill="#edd1d0" d="M 372.5,722.5 C 374.5,722.5 375.5,723.5 375.5,725.5C 374.167,724.833 373.167,723.833 372.5,722.5 Z"/></g>
<g><path style="opacity:0.055" fill="#eed4d4" d="M 375.5,725.5 C 377.833,725.833 379.167,727.167 379.5,729.5C 377.833,728.5 376.5,727.167 375.5,725.5 Z"/></g>
<g><path style="opacity:0.008" fill="#bdbdbd" d="M 478.5,727.5 C 478.5,728.833 477.833,729.5 476.5,729.5C 476.833,728.5 477.5,727.833 478.5,727.5 Z"/></g>
<g><path style="opacity:0.063" fill="#efd7d7" d="M 379.5,729.5 C 381.5,729.5 382.5,730.5 382.5,732.5C 381.167,731.833 380.167,730.833 379.5,729.5 Z"/></g>
<g><path style="opacity:0.008" fill="#bdbdbd" d="M 475.5,730.5 C 475.5,731.833 474.833,732.5 473.5,732.5C 473.833,731.5 474.5,730.833 475.5,730.5 Z"/></g>
<g><path style="opacity:0.063" fill="#efd8d8" d="M 382.5,732.5 C 384.5,732.5 385.5,733.5 385.5,735.5C 384.167,734.833 383.167,733.833 382.5,732.5 Z"/></g>
<g><path style="opacity:0.125" fill="#f0d9d8" d="M 485.5,720.5 C 486.251,719.427 487.251,719.26 488.5,720C 497.737,728.734 506.404,737.9 514.5,747.5C 504.199,739.2 494.533,730.2 485.5,720.5 Z"/></g>
<g><path style="opacity:0.008" fill="#bdbdbd" d="M 472.5,733.5 C 472.5,734.833 471.833,735.5 470.5,735.5C 470.833,734.5 471.5,733.833 472.5,733.5 Z"/></g>
<g><path style="opacity:0.047" fill="#efd9d9" d="M 385.5,735.5 C 387.5,735.5 388.5,736.5 388.5,738.5C 387.167,737.833 386.167,736.833 385.5,735.5 Z"/></g>
<g><path style="opacity:0.055" fill="#efd8d8" d="M 388.5,738.5 C 390.833,738.833 392.167,740.167 392.5,742.5C 390.833,741.5 389.5,740.167 388.5,738.5 Z"/></g>
<g><path style="opacity:0.008" fill="#bdbdbd" d="M 468.5,737.5 C 468.5,738.833 467.833,739.5 466.5,739.5C 466.833,738.5 467.5,737.833 468.5,737.5 Z"/></g>
<g><path style="opacity:0.008" fill="#bdbdbd" d="M 465.5,740.5 C 465.5,741.833 464.833,742.5 463.5,742.5C 463.833,741.5 464.5,740.833 465.5,740.5 Z"/></g>
<g><path style="opacity:0.063" fill="#efd7d7" d="M 392.5,742.5 C 394.5,742.5 395.5,743.5 395.5,745.5C 394.167,744.833 393.167,743.833 392.5,742.5 Z"/></g>
<g><path style="opacity:0.008" fill="#bdbdbd" d="M 462.5,743.5 C 462.5,744.833 461.833,745.5 460.5,745.5C 460.833,744.5 461.5,743.833 462.5,743.5 Z"/></g>
<g><path style="opacity:0.063" fill="#efd4d4" d="M 395.5,745.5 C 397.5,745.5 398.5,746.5 398.5,748.5C 397.167,747.833 396.167,746.833 395.5,745.5 Z"/></g>
<g><path style="opacity:0.047" fill="#eed1d0" d="M 398.5,748.5 C 400.5,748.5 401.5,749.5 401.5,751.5C 400.167,750.833 399.167,749.833 398.5,748.5 Z"/></g>
<g><path style="opacity:0.008" fill="#bdbdbd" d="M 455.5,750.5 C 455.5,751.833 454.833,752.5 453.5,752.5C 453.833,751.5 454.5,750.833 455.5,750.5 Z"/></g>
<g><path style="opacity:0.251" fill="#f0d7d7" d="M 401.5,751.5 C 404.142,751.488 405.475,752.821 405.5,755.5C 403.833,754.5 402.5,753.167 401.5,751.5 Z"/></g>
<g><path style="opacity:0.008" fill="#bdb7b7" d="M 452.5,753.5 C 452.5,754.833 451.833,755.5 450.5,755.5C 450.833,754.5 451.5,753.833 452.5,753.5 Z"/></g>
<g><path style="opacity:0.22" fill="#f1dcdb" d="M 405.5,755.5 C 406.93,755.421 408.264,755.754 409.5,756.5C 414.578,762.581 420.244,767.915 426.5,772.5C 426.737,773.791 426.404,774.791 425.5,775.5C 418.5,769.167 411.833,762.5 405.5,755.5 Z"/></g>
<g><path style="opacity:0.008" fill="#f8f2f2" d="M 442.5,763.5 C 442.5,764.833 441.833,765.5 440.5,765.5C 440.833,764.5 441.5,763.833 442.5,763.5 Z"/></g>
<g><path style="opacity:0.008" fill="#f8f0f0" d="M 439.5,766.5 C 439.5,767.833 438.833,768.5 437.5,768.5C 437.833,767.5 438.5,766.833 439.5,766.5 Z"/></g>
<g><path style="opacity:0.125" fill="#efdada" d="M 514.5,747.5 C 525.781,757.113 536.447,767.446 546.5,778.5C 544.567,778.271 542.9,777.438 541.5,776C 532.139,766.722 523.139,757.222 514.5,747.5 Z"/></g>
<g><path style="opacity:0.008" fill="#f8f0f0" d="M 436.5,769.5 C 436.5,770.833 435.833,771.5 434.5,771.5C 434.833,770.5 435.5,769.833 436.5,769.5 Z"/></g>
<g><path style="opacity:0.063" fill="#fefdfd" d="M 428.5,776.5 C 428.833,776.5 429.167,776.5 429.5,776.5C 430.154,795.197 429.487,813.53 427.5,831.5C 428.486,813.243 428.82,794.91 428.5,776.5 Z"/></g>
<g><path style="opacity:0.063" fill="#d1a3a3" d="M 310.5,831.5 C 349.5,832.833 388.5,832.833 427.5,831.5C 389.805,833.175 351.805,834.175 313.5,834.5C 311.787,834.121 310.787,833.121 310.5,831.5 Z"/></g>
<g><path style="opacity:0.063" fill="#efd9d8" d="M 546.5,778.5 C 591.632,823.132 636.632,867.965 681.5,913C 682.577,913.47 683.577,913.303 684.5,912.5C 684.209,913.649 683.376,914.316 682,914.5C 680.276,914.045 678.776,913.212 677.5,912C 634,868.5 590.5,825 547,781.5C 546.517,780.552 546.351,779.552 546.5,778.5 Z"/></g>
</svg>
